<?xml version="1.0" encoding="utf-8"?>
<!-- Generator: Adobe Illustrator 16.0.0, SVG Export Plug-In . SVG Version: 6.00 Build 0)  -->
<!DOCTYPE svg PUBLIC "-//W3C//DTD SVG 1.1//EN" "http://www.w3.org/Graphics/SVG/1.1/DTD/svg11.dtd">
<svg version="1.1" xmlns="http://www.w3.org/2000/svg" xmlns:xlink="http://www.w3.org/1999/xlink" x="0px" y="0px" width="1600px"
	 height="1131px" viewBox="0 0 1600 1131" enable-background="new 0 0 1600 1131" xml:space="preserve">
<g id="Layer_3" display="none">
</g>
<g id="Layer_1" display="none">
	<image display="inline" overflow="visible" width="1600" height="1131" xlink:href="FA4E1385EB9F9CE3.jpg" >
	</image>
</g>
<g id="Valparaiso">
	<path id="mapa_valpo" opacity="0.49" fill="#626362" d="M2122.664,1263.501c-17.998-12.668-36.893-20.438-36.893-20.438
		s34.531-65.635,19.938-121.058l64.045-388.841c0,0-25.424-305.365-89.982-377.924c-64.797-72.827-275.777-100.765-359.928-149.97
		c-101.617-59.419-280.896-219.559-389.922-263.947c-80.152-32.634-255.752-46.071-341.932-53.989
		c-196-18.009-599.702-15.982-785.843,47.991C101.966-30.246-73.9,94.56-146.333,152.833c-24,32-115.197,155.864-110.856,194.603
		c2.457,21.925,25.368,41.531,28.856,83.397c2,24-11.702,49.947-9.357,66.595c2.439,17.321,35.998,59.997,35.998,59.997
		s-62.774,63.563-64.497,91.496c-3.035,49.228,92.995,173.991,92.995,173.991s44.873,62.989,53.861,86.921
		c17.245,45.916,20,121,46.634,190.565c9.421,24.605,26.519,75.848,43.498,95.995c24.271,28.8,122.994,86.995,122.994,86.995
		s2.096-103.842,9.794-132.556c6.176-23.034,25.08-57,45.703-74.434c0.52-0.439,47.998,64.497,47.998,64.497l20.999-23.999
		l-43.498-67.497l229.489-170.991c0,0,135.591-44.83,207.489-37.998c60.569,5.756,285.236,63.089,314.484,81.996
		c37.352,24.146,60.75,71.76,76.496,123.993c0.27,0.896,55.498,0,55.498,0l-4.5-95.994l71.992,41.098l-14.07,154.329l141,209l-61,46
		l-168-77l-9,14l178,82l69-51l10.203,14.143c0,0,56.797-27.143,121.797-7.143c56.1,17.261,94.891,57.106,111.555,89.047
		c18,34.498,24.924,82.431,36.445,93.953c12,12,32.887-5.678,43-2c11,4-31.793,65.36,58,79c79,12,78-40,94-43
		c11.211-2.103,56.541,43.038,83,45c51.566,3.823,153.531-42.46,180-106c17.207-41.305-21.115-134.354,12.332-156.333
		c23.334-15.333,27.482,22.166,49.668,29c84.023,25.881,105.137-52.294,104.332-62.333
		C2163.689,1313.387,2158.252,1288.549,2122.664,1263.501z"/>
</g>
<g id="Plan">
	<path opacity="0.52" fill="#FFFFFF" stroke="#000000" stroke-miterlimit="10" d="M1594.051,1024.067
		C1423,1015,1159.072,881.574,1159.072,881.574l-37.498,53.998c0,0,255.426,117.428,365.981,188.99
		C1488.22,1124.992,1595.454,1024.142,1594.051,1024.067z"/>
	<polygon fill="#878787" points="1108,840.001 1122.667,815.334 1050,801.334 1046,824.001 	"/>
	<polygon fill="#878787" points="999.333,794.001 995.333,813.334 917.333,798.667 921.333,780.001 	"/>
	<polygon fill="#878787" points="1008.667,762.667 1003.333,781.334 928,767.334 932,751.334 	"/>
	<polygon fill="#878787" points="1023.333,782.001 1027.333,764.667 1077.333,772.667 1070,792.667 	"/>
	<polygon fill="#878787" points="1081.333,773.334 1137.333,783.334 1126.667,804.667 1074.667,792.667 	"/>
	<polygon fill="#878787" points="908.667,779.334 904,793.334 822,772.001 824,764.667 	"/>
	<polygon fill="#878787" points="919.333,748.667 912.667,764.001 831.333,748.667 838.667,732.667 	"/>
	<polygon fill="#878787" points="828.667,729.334 820,744.001 812,744.667 758,708.667 769.333,696.001 	"/>
	<polygon fill="#878787" points="754,728.667 792.667,757.334 790.667,764.001 747.333,749.334 	"/>
	<polygon fill="#878787" points="685.333,700.001 737.333,717.334 730,741.334 678.667,724.001 	"/>
	<path fill="#878787" d="M671.333,697.334c0,0-46.333-15.334-62-14.667c-0.849,0.036-2.846,22.586-2,22.667
		c22.667,2.166,60,11.333,60,11.333L671.333,697.334z"/>
	<polygon fill="#878787" points="678,681.5 680,664 615,639 612.5,664.5 	"/>
	<polygon fill="#878787" points="694.5,671 690,685 721,699 718,687 	"/>
	<polygon fill="#878787" points="749.5,697.5 759,686.5 726.5,633.5 707,628.5 698,653 	"/>
	<polygon fill="#878787" points="619.5,611 619.5,623.5 685,648.5 690.5,625.5 	"/>
	<polygon fill="#878787" points="597.5,663 598,636.5 561.5,643 562,667.5 	"/>
	<polygon fill="#878787" points="477.5,669 549,653 549,670 481,687 	"/>
	<polygon fill="#878787" points="550.5,686.5 552,708 438,737 431,715 	"/>
	<polygon fill="#DDDDDD" points="558.5,627.5 601,619 601,604.5 556.5,602.5 	"/>
	<polygon fill="#878787" points="557.5,583 602.5,583.5 601,604.5 556.5,602.5 	"/>
	<path fill="#878787" d="M621,597l3-49c36.5,12,42.5,36.5,74.5,50.5c0.648,0.283-2,13.5-2,13.5L621,597z"/>
	<polygon fill="#878787" points="604.5,547 560,546.5 558.5,570 606,568.5 	"/>
	<polygon fill="#878787" points="544,583 544.5,605.5 467.5,617 469,584.5 	"/>
	<path fill="#878787" d="M545.5,545c-20-1-45-10-76.5-13.5l0.5,41.5l76-3V545z"/>
	<path fill="#DDDDDD" d="M621,597l-1.5,14l71,14.5l-5.5,23l13,4.5l9-24.5l16,3.5c-8.5-19-24.5-33.5-24.5-33.5l-2,13.5L621,597z"/>
	<polygon fill="#DDDDDD" points="598,636.5 615,636 612.5,664.5 597.5,663 	"/>
	<polygon fill="#DDDDDD" points="609.333,682.667 595.5,680.5 592.5,705.5 607.333,705.334 	"/>
</g>
<g id="Cerro_Conce">
	<path opacity="0.49" fill="#C4C4C4" d="M757,608c-9,65.5,49.857,92.491,81,102c65.5,20,175,14,175,14l17.5,1.5
		c0,0-0.494-15.214,14-50c5-12,57.509-60.825,40.5-115c-13.5-43-128-80.5-128-80.5l-16.598-5.035c0,0-4.902,31.035-14.402,31.035
		c-23.104,0-15.974-22.545-90,21c-5.473,3.219-35,30.5-44,37.5C785.381,569.648,758.066,600.243,757,608z"/>
	<path id="calles_c_conce" fill="#FFFFFF" d="M1027.5,507.5L957,479l-17.5-3.5c0,0-2.802,24.358-8.5,29.5
		c-6.859,6.19-24.187-2.32-40.75-0.5c-17.589,1.933-34.25,14-34.25,14l-47,34.167l-29.914,2.529
		c-1.693,4.251-4.346,9.092-6.679,13.077l8.887,6.026l-13.74,2.586c-1.318,5.243-1.621,12.61-0.45,17.914
		c28.192-8.697,57.358-37.761,91.396-59.8c0.47-0.304-8.954,24.562-19,35.5c-11.25,12.25-44.5,42-44.5,42l10,5l10.5-11l54,18.5
		L848,669l11.5,5l24-46.5l43,17.5L915,668.5l15,4l11.5-19.5l29.5,11l7-11.5l-27.5-12l9.5-17l26.5,11l5-11.5l-26-10.5l9.5-16l25.5,10
		l5.5-10l-25.5-9.5l6.5-12l11,5l5.5-10l-10-6.5L1021,519L1027.5,507.5z M785.541,571.079l-8.207-5.746l19.108-2.81L785.541,571.079z
		 M875.75,615c0,0-49.564-17.839-49.25-18c11.25-5.75,22-15.25,22-15.25l36,16L875.75,615z M932.5,634.75L888,619l9.5-17.25
		l44.5,16.5L932.5,634.75z M949.25,608l-46.5-18.5l9.75-16L959,591L949.25,608z M963.5,581.5L870,545.75l-2.866,9.792L898.5,569.25
		l-8.25,16.5l-32.5-14l6.849-16.876c0.473-2.958,2.601-15.646,4.901-19.624c3.646-6.303,12.666-16.909,26-17
		c36.75-0.25,36.612,28.894,40,32c3,2.75,35.75,17.5,35.75,17.5L963.5,581.5z M979.25,556.25c0,0-18-6.5-22-12.25
		c-5.33-7.663-1.75-49.75-1.75-49.75l49.25,18.75L979.25,556.25z"/>
</g>
<g id="Cerro_Alegre">
	<path opacity="0.49" fill="#F7F7F7" d="M940.402,474.965c-28.794-49.848,50.473-111.771,81.098-129.465c22.5-13,87-42,87-42
		s56.634,24.47,75,18.5c18.813-6.115,31.993-65.983,51-60.5c26,7.5,8.79,44.668,12,65c1.5,9.5,12,12,11.5,22
		c-0.892,17.841-35.174,32.176-34,50c1.116,16.952,44.097,16.769,46.5,39c2,18.5-35.173,36.789-34.5,52.5
		c1.5,35,40.233,49.315,43,72c2.5,20.5-14.562,44.335-17,59c-2.131,12.816,14,28,7,48c-5.553,15.864-34,19-34,19s-47.812-4.682-48-4
		c-13.5,49-40,48-71,46c-21.833-1.408-85.5-4.5-85.5-4.5s6.884-33.363,12.065-48.479C1046,667,1105.646,607.699,1084.5,561
		C1060.5,508,941,476,940.402,474.965z"/>
</g>
<g id="Cerro_Panteon">
	<path id="cerro" fill="#D7D6D8" d="M778,472.25c-1.5-5.75-15.897-16.503-25.276-34.483C741.5,416.25,728,392,728,392
		s18-10.015,18-21.333c0-17.917-19-21.667-26.667-35c-11.542-20.073-2-41.333-8-47c-6.547-6.184-84.333,42-92,65.333
		c-3.803,11.576,20.866,32.244,24.553,42.951c-0.249,0.023-0.016-0.001-0.012,0.008c23,50.25-10.795,78.081-13.625,80.542
		C624.5,482.5,610,491,610,491l9.5,37.5c17.384-0.151,37.682,12.643,41.25,14.938c10.583,5.562,31.788,45.983,67,44.062
		c27.5-1.5,36.75-37,40.75-49.25C775.224,517.658,783.859,492.584,778,472.25z"/>
	<path id="cementerio_1" fill="#AEAFAE" d="M657.333,496l86-34l26,17.333c0,0-8.181,47.205-12.667,63.333
		c-2.037,7.324-9.333,24-20.667,26c-12.349,2.18-32.65-6.65-46-20C676.667,535.333,657.333,496,657.333,496z"/>
	<path id="cementerio_2" fill="#AEAFAE" d="M729.5,455c0,0-28.038,20.518-35.5,14.5c-15.5-12.5,4.5-40.5,2.5-58
		c-2.339-20.464-33.5-58-13.5-69c10.654-5.859,40,8.75,43,11c0.738,0.554,1.602,1.942,0.934,3.573
		c-3.428,8.372-13.942,34.905-13.934,45.427C713.011,416.258,729.5,455,729.5,455z"/>
	<path fill="#FFFFFF" d="M851.667,261.333l-20-10.667l26-37.333l10-18.333l11-25c0,0-8.646-8.964-10-6.333
		c-35.333,68.667-55.169,77.013-77.667,99c-14.667,14.333-48.539,20.009-57.333,34.667c-4.559,7.598-5.269,22.692-5.347,29.509
		c-2.778-6.69-6.309-17.405-5.159-26.559C725.597,280.893,740,274,740,274s-2.5-9.978-5.333-10
		c-20.833-0.167-124.667,46.333-136.333,87c-5.905,20.584,33.5,52.667,35.833,76.333c1.453,14.736-16.833,38-16.833,38L610,462.667
		l-21.333,20l9.333,47l24.333,18.667c16-2,64,55,80.667,62.333c21.25,9.35,27.333,40.667,55.667,74.333
		c0.479,0.569,17.572-9.521,17-10c-20.333-17-21.428-59.433-20.667-64c0.812-4.871,9.752-13.477,13.088-16.542
		c-1.611-5.68-1.682-11.817,0.771-17.164l-0.192,0.046v-0.006l3.635-7.79c-0.275-0.016,3.51-5.731,7.698-14.294
		c0.003-0.007,0.148-0.009,0.33-0.007L791,520l4.333-16l7-25.333l33.666-44L828.667,430c0,0-22.77-14.613-22-15.333
		c36-33.667,35-120.333,42.667-141.667c2.224-6.187,16.333-12.333,23.666-17.333c1.87-1.275-1-9-1-9L851.667,261.333z M726,353.5
		c0.738,0.554,1.602,1.942,0.934,3.573c-3.428,8.372-13.942,34.905-13.934,45.427c0.011,13.758,16.5,52.5,16.5,52.5
		s-28.038,20.518-35.5,14.5c-15.5-12.5,4.5-40.5,2.5-58c-2.339-20.464-33.5-58-13.5-69C693.654,336.641,723,351.25,726,353.5z
		 M619.333,528L612,491.667c0,0,3.243-1.904,7.876-5.514l14.031,45.047C629.49,529.893,624.662,528.807,619.333,528z M771,527.667
		c-1.523,7.608-4.606,17.619-8.849,27.231c-5.213,11.812-12.178,23.022-20.151,28.436c-7.31,4.962-22.977,5.2-31.333,2.333
		c-22.711-7.793-31.296-27.185-50.883-41.688C656.818,535.492,630.23,477.27,630,477.5c-0.952,0.952-2.047,1.874-3.161,2.729
		c11.446-10.616,25.289-28.211,24.995-51.062c-0.504-39.172-33.982-52.693-32.5-72.5c2.119-28.323,80.683-70.721,90-69.333
		c7.833,1.167,2.033,19.454,2.333,26c0.285,6.221,10.692,19.518,7.667,24c-4.5,6.667-35.44-16.381-49.667,2
		c-18.833,24.333,10.996,56.672,15.667,75.333c3.499,13.98-20.333,34.667-6,57.333c1.606,2.54,7.085,5.938,10,6.667
		c16.667,4.167,53.333-17.333,53.333-17.333s-27.665-52.835-18-67.333c1.667-2.5,4.667-2.667,4.667-2.667s26.667,59.333,47.333,78
		c0.025,0.023,0.091-0.13,0.184-0.424c0.006,0.043,0.012,0.083,0.019,0.099C783.333,483.333,773.24,516.474,771,527.667z
		 M801.667,408l-8,1L785,417.667l5.333,4.667l7-6l23.667,17l-6.333,8l-15-13.333c-1.447-0.644-3-0.333-6.333,0
		c-0.332,0.033-16,17.333-16,17.333c-19.5-16.5-35.833-54.5-36.667-72.667c0,0,16.627,23.104,29.333,23
		c40.667-0.333,52-53.333,52-53.333s-8.913-1.323-9-1c-10,37-35,48.333-41.667,45c-29.202-14.602-34.875-72.486-24.333-83.667
		C758,291,762.333,306,818.667,259c4.402-3.673,19.551,8.326,19.333,12.333C832.667,369.667,801.667,408,801.667,408z"/>
</g>
</svg>
