<?xml version="1.0" encoding="utf-8"?>
<!-- Generator: Adobe Illustrator 15.1.0, SVG Export Plug-In . SVG Version: 6.00 Build 0)  -->
<!DOCTYPE svg PUBLIC "-//W3C//DTD SVG 1.1//EN" "http://www.w3.org/Graphics/SVG/1.1/DTD/svg11.dtd">
<svg version="1.1" id="Layer_1" xmlns="http://www.w3.org/2000/svg" xmlns:xlink="http://www.w3.org/1999/xlink" x="0px" y="0px"
	 width="1015.269px" height="1381.643px" viewBox="0 0 1015.269 1381.643" enable-background="new 0 0 1015.269 1381.643"
	 xml:space="preserve">
<path fill="#87888A" d="M18.22,629.157C-66.505,482.481,166.735,300.276,256.848,248.21
	c66.206-38.252,255.995-123.584,255.995-123.584s166.644,72.002,220.686,54.436c55.358-17.994,94.139-194.153,150.066-178.02
	c76.504,22.068,25.865,131.436,35.31,191.261c4.414,27.953,35.31,35.31,33.838,64.734c-2.623,52.496-103.498,94.676-100.044,147.124
	c3.285,49.881,129.754,49.344,136.825,114.757c5.885,54.436-103.495,108.251-101.515,154.479
	c4.414,102.986,118.385,145.109,126.526,211.858c7.356,60.32-42.847,130.454-50.021,173.605
	c-6.271,37.712,41.194,82.39,20.597,141.239c-16.339,46.68-100.044,55.906-100.044,55.906s-140.687-13.775-141.238-11.77
	c-39.724,144.182-117.699,141.238-208.916,135.354c-64.243-4.144-251.581-13.241-251.581-13.241s20.255-98.17,35.502-142.649
	c10.106-29.485,185.614-203.976,123.392-341.387C371.604,726.362,19.979,632.203,18.22,629.157z"/>
</svg>
