<?xml version="1.0" encoding="utf-8"?>
<!-- Generator: Adobe Illustrator 15.1.0, SVG Export Plug-In . SVG Version: 6.00 Build 0)  -->
<!DOCTYPE svg PUBLIC "-//W3C//DTD SVG 1.1//EN" "http://www.w3.org/Graphics/SVG/1.1/DTD/svg11.dtd">
<svg version="1.1" id="Layer_1" xmlns="http://www.w3.org/2000/svg" xmlns:xlink="http://www.w3.org/1999/xlink" x="0px" y="0px"
	 width="604.146px" height="1064.521px" viewBox="0 0 604.146 1064.521" enable-background="new 0 0 604.146 1064.521"
	 xml:space="preserve">
<path fill="#87888A" d="M597.24,654.572c-5.333-20.441-56.512-58.668-89.854-122.586c-39.903-76.494-87.896-162.703-87.896-162.703
	s63.99-35.602,63.99-75.842c0-63.691-67.545-77.023-94.798-124.421c-41.032-71.36-7.11-146.939-28.44-167.089
	C336.965-20.052,60.436,151.244,33.183,234.193c-13.522,41.153,74.176,114.628,87.285,152.691c-0.886,0.08-0.056-0.007-0.042,0.028
	C202.19,565.551,82.05,664.487,71.989,673.235C51.548,691.011,0,721.229,0,721.229l33.772,133.313
	c61.8-0.535,133.958,44.944,146.644,53.103c37.627,19.774,113.007,163.471,238.186,156.643
	c97.763-5.333,130.646-131.535,144.866-175.084C587.374,815.998,618.07,726.859,597.24,654.572z"/>
</svg>
