<?xml version="1.0" encoding="utf-8"?>
<!-- Generator: Adobe Illustrator 15.1.0, SVG Export Plug-In . SVG Version: 6.00 Build 0)  -->
<!DOCTYPE svg PUBLIC "-//W3C//DTD SVG 1.1//EN" "http://www.w3.org/Graphics/SVG/1.1/DTD/svg11.dtd">
<svg version="1.1" id="Layer_1" xmlns="http://www.w3.org/2000/svg" xmlns:xlink="http://www.w3.org/1999/xlink" x="0px" y="0px"
	 width="1823.452px" height="1374.767px" viewBox="0 0 1823.452 1374.767" enable-background="new 0 0 1823.452 1374.767"
	 xml:space="preserve">
<path fill="#87888A" d="M5.077,730.006c-49.386,359.42,273.584,507.529,444.473,559.707
	c359.419,109.746,960.281,76.822,960.281,76.822l96.028,8.231c0,0-2.712-83.484,76.822-274.366
	c27.437-65.849,315.569-333.768,222.236-631.042c-74.079-235.955-702.377-441.729-702.377-441.729L1011.465,0
	c0,0-26.901,170.3-79.031,170.3c-126.782,0-87.652-123.711-493.858,115.233c-30.03,17.662-192.056,167.363-241.442,205.774
	C160.812,519.559,10.929,687.441,5.077,730.006z"/>
</svg>
