<?xml version="1.0" encoding="utf-8"?>
<!-- Generator: Adobe Illustrator 15.1.0, SVG Export Plug-In . SVG Version: 6.00 Build 0)  -->
<!DOCTYPE svg PUBLIC "-//W3C//DTD SVG 1.1//EN" "http://www.w3.org/Graphics/SVG/1.1/DTD/svg11.dtd">
<svg version="1.1" id="Layer_1" xmlns="http://www.w3.org/2000/svg" xmlns:xlink="http://www.w3.org/1999/xlink" x="0px" y="0px"
	 width="1920px" height="1387.577px" viewBox="0 0 1920 1387.577" enable-background="new 0 0 1920 1387.577" xml:space="preserve">
<path fill="#87888A" d="M1882.885,1092.365c-14.184-9.984-29.076-16.11-29.076-16.11s27.214-51.73,15.712-95.413L1920,674.367
	c0,0-20.039-240.68-70.922-297.869c-51.072-57.4-217.36-79.42-283.686-118.204c-80.092-46.831-221.395-173.049-307.325-208.035
	c-63.176-25.722-201.577-36.313-269.501-42.553C834.084-6.487,515.896-4.891,369.186,45.532
	c-78.96,27.136-217.573,125.505-274.663,171.434C75.607,242.188,3.728,339.813,7.149,370.346
	c1.936,17.282,19.995,32.735,22.745,65.732c1.576,18.916-9.224,39.368-7.376,52.488c1.923,13.651,28.373,47.29,28.373,47.29
	S1.413,585.955,0.056,607.969c-2.392,38.8,73.296,137.135,73.296,137.135s35.368,49.646,42.453,68.51
	c13.591,36.189,15.764,95.368,36.755,150.196c7.425,19.395,20.901,59.781,34.284,75.662c19.129,22.699,96.94,68.568,96.94,68.568
	s1.652-81.846,7.72-104.479c4.868-18.153,19.767-44.925,36.022-58.665c0.409-0.348,37.831,50.834,37.831,50.834l16.55-18.914
	l-34.284-53.199L528.5,788.845c0,0,106.868-35.332,163.536-29.949c47.74,4.536,224.815,49.726,247.868,64.627
	c29.44,19.032,47.881,56.559,60.292,97.729c0.212,0.706,43.741,0,43.741,0l-3.546-75.658l56.741,32.391l-11.087,121.638
	l111.13,164.729l-48.079,36.256l-132.412-60.689l-7.094,11.034l140.296,64.632l54.385-40.198l8.039,11.146
	c0,0,44.768-21.393,95.997-5.628c44.216,13.604,74.792,45.008,87.925,70.184c14.187,27.19,19.644,64.97,28.727,74.051
	c9.458,9.459,25.92-4.475,33.891-1.576c8.67,3.152-25.059,51.516,45.714,62.267c62.266,9.457,61.478-31.527,74.089-33.892
	c8.836-1.656,44.563,33.92,65.418,35.468c40.643,3.014,121.009-33.466,141.871-83.546c13.562-32.556-16.644-105.896,9.719-123.219
	c18.393-12.084,21.661,17.472,39.146,22.857c66.226,20.398,82.869-41.215,82.233-49.129
	C1915.22,1131.684,1910.934,1112.105,1882.885,1092.365z"/>
</svg>
