<?xml version="1.0" encoding="utf-8"?>
<!-- Generator: Adobe Illustrator 16.0.0, SVG Export Plug-In . SVG Version: 6.00 Build 0)  -->
<!DOCTYPE svg PUBLIC "-//W3C//DTD SVG 1.1//EN" "http://www.w3.org/Graphics/SVG/1.1/DTD/svg11.dtd">
<svg version="1.1" xmlns="http://www.w3.org/2000/svg" xmlns:xlink="http://www.w3.org/1999/xlink" x="0px" y="0px" width="2000px"
	 height="2000px" viewBox="-760 -760 2000 2000" enable-background="new -760 -760 2000 2000" xml:space="preserve">
<g id="Layer_2" display="none">
	
		<rect x="-2201.885" y="-1268.837" display="inline" fill="#4EB7E5" stroke="#000000" stroke-width="1.9612" stroke-miterlimit="10" width="5011.888" height="2721.778"/>
</g>
<g id="Layer_1">
	<path id="cerro" fill="#D7D6D8" d="M54.167-181.936c-3.66-8.209-27.797-20.697-46.235-45.2
		c-22.064-29.327-48.201-62.171-48.201-62.171s24.38-19.392,21.581-36.277c-4.429-26.732-33.704-27.629-48.437-45.628
		c-22.182-27.092-13.202-61.17-23.556-68.144c-11.297-7.609-115.44,83.512-121.108,120.217
		c-2.814,18.212,39.102,42.949,47.25,58.012c-0.365,0.094-0.023,0.001-0.016,0.015c46.737,69.286,3.196,119.162-0.419,123.534
		c-7.341,8.879-26.87,25.145-26.87,25.145l23.438,53.599c25.9-4.522,59.348,9.553,65.239,12.09
		C-86.002-41.062-44.374,14.003,7.686,2.43c40.657-9.035,45.683-64.287,48.623-83.551C61.248-113.507,67.936-153.048,54.167-181.936
		z"/>
	<path id="cementerio_1" fill="#AEB0AE" d="M-119.994-116.674l119.905-71.988l43.074,19.436c0,0-0.535,72.449-3.242,97.621
		c-1.228,11.43-7.992,38.115-24.406,43.902c-17.887,6.301-50.356-1.854-73.573-18.471
		C-81.423-62.77-119.994-116.674-119.994-116.674z"/>
	<path id="cementerio_2" fill="#AEB0AE" d="M-22.458-195.687c0,0-36.758,37.545-49.381,30.413
		c-26.215-14.818-3.298-61.537-10.61-87.153c-8.544-29.953-64.317-78.252-37.196-99.607c14.446-11.375,61.841,3.166,66.875,5.78
		c1.238,0.645,2.87,2.502,2.274,5.101c-3.045,13.338-12.17,55.525-9.557,71.222C-56.637-249.412-22.458-195.687-22.458-195.687z"/>
</g>
</svg>
