<?xml version="1.0" encoding="utf-8"?>
<!-- Generator: Adobe Illustrator 16.0.0, SVG Export Plug-In . SVG Version: 6.00 Build 0)  -->
<!DOCTYPE svg PUBLIC "-//W3C//DTD SVG 1.1//EN" "http://www.w3.org/Graphics/SVG/1.1/DTD/svg11.dtd">
<svg version="1.1" xmlns="http://www.w3.org/2000/svg" xmlns:xlink="http://www.w3.org/1999/xlink" x="0px" y="0px" width="2000px"
	 height="2000px" viewBox="-760 -760 2000 2000" enable-background="new -760 -760 2000 2000" xml:space="preserve">
<g id="Layer_2" display="none">
	
		<rect x="-2201.885" y="-1268.837" display="inline" fill="#4EB7E5" stroke="#000000" stroke-width="1.9612" stroke-miterlimit="10" width="5011.888" height="2721.778"/>
</g>
<g id="Layer_1">
	<path id="cerro" fill="#D7D6D8" d="M419.056,399.328c-8.135-18.246-61.787-46.004-102.77-100.466
		c-49.043-65.186-107.138-138.188-107.138-138.188s54.191-43.103,47.971-80.635c-9.846-59.417-74.915-61.412-107.662-101.418
		c-49.304-60.217-29.344-135.963-52.358-151.464C71.987-189.755-159.492,12.78-172.09,94.365
		c-6.255,40.479,86.912,95.463,105.022,128.945c-0.812,0.208-0.052,0.003-0.035,0.033C36.78,377.345-60,488.205-68.035,497.923
		c-16.317,19.737-59.724,55.892-59.724,55.892l52.097,119.134c57.568-10.05,131.915,21.234,145.009,26.875
		c38.152,12.627,130.681,135.023,246.396,109.297c90.368-20.082,101.538-142.89,108.075-185.71
		C434.793,551.429,449.66,463.537,419.056,399.328z"/>
	<path id="cementerio_1" fill="#AEB0AE" d="M31.946,544.388l266.515-160.011l95.742,43.2c0,0-1.189,161.034-7.205,216.984
		c-2.728,25.405-17.764,84.72-54.249,97.583c-39.756,14.004-111.927-4.123-163.532-41.056
		C117.677,664.201,31.946,544.388,31.946,544.388z"/>
	<path id="cementerio_2" fill="#AEB0AE" d="M248.74,368.764c0,0-81.704,83.454-109.761,67.601
		c-58.269-32.938-7.331-136.78-23.583-193.718C96.405,176.069-27.562,68.714,32.72,21.247
		c32.109-25.282,137.455,7.037,148.643,12.848c2.752,1.434,6.378,5.562,5.055,11.337c-6.767,29.648-27.049,123.417-21.241,158.307
		C172.77,249.348,248.74,368.764,248.74,368.764z"/>
	<path fill="#FFFFFF" d="M547.45-340.594l-72.188-24.381l65.712-138.091l23.094-66.299l22.73-88.948
		c0,0-33.591-24.973-36.632-15.502c-79.444,247.122-140.639,285.704-203.171,370.975c-40.754,55.595-149.961,93.031-171.074,146.468
		c-10.939,27.703-4.999,78.148-1.509,100.796c-12.893-20.659-30.491-54.252-31.706-85.24c-2.577-65.643,41.399-96.413,41.399-96.413
		s-13.774-31.715-23.184-30.237c-69.179,10.899-387.959,222.159-404.3,363.426c-8.269,71.509,140.03,156.246,160.77,233.44
		c12.916,48.075-34.939,135.265-34.939,135.265l-25.783-4.81l-59.755,78.047l56.777,150.728l90.946,48.535
		C-3.4,721.739,187.098,884.39,246.397,899.546c75.602,19.329,112.993,119.839,225.45,215.91
		c1.896,1.646,53.037-41.222,50.874-42.501c-76.77-45.203-103.718-185.31-103.701-200.873c0.016-16.603,24.94-50.046,34.308-62.045
		c-8.457-17.955-12.062-38.265-6.868-57.342l-0.605,0.253l-0.008-0.023l7.774-27.822c-0.921,0.093,8.49-20.94,17.67-51.635
		c0.005-0.023,0.485-0.114,1.094-0.202l16.01-122.735l5.587-55.442l9.295-87.86l87.467-164.402l-26.88-11.456
		c0,0-83.544-35.942-81.382-38.748c100.878-131.433,49.946-418.289,63.647-493.246c3.97-21.737,47.394-49.881,68.956-70.483
		c5.496-5.255-8.27-29.294-8.27-29.294L547.45-340.594z M181.363,34.095c2.752,1.434,6.378,5.562,5.055,11.337
		c-6.767,29.648-27.049,123.417-21.241,158.307c7.593,45.608,83.563,165.024,83.563,165.024s-81.704,83.454-109.761,67.601
		c-58.269-32.938-7.331-136.78-23.583-193.718C96.405,176.069-27.562,68.714,32.72,21.247
		C64.829-4.035,170.174,28.284,181.363,34.095z M-76.479,671.391l-44.285-116.463c0,0,9.708-8.097,23.083-22.618l71.287,141.677
		C-41.764,672.076-58.374,671.143-76.479,671.391z M426.289,586.94c-0.869,26.073-5.59,60.959-14.383,95.172
		c-10.797,42.033-27.73,83.043-51.198,105.372c-21.512,20.474-73.335,29.862-102.625,24.953
		c-79.592-13.362-118.718-72.955-191.647-110.296C51.939,675.632-68.219,497.167-68.857,498.058
		c-2.632,3.681-5.757,7.345-8.984,10.778c32.126-41.484,68.36-107.443,54.828-183.058
		C-46.208,196.151-164.657,169.71-170.625,103.212c-8.534-95.094,228.701-278.859,260.36-279.377
		c26.616-0.437,17.431,63.393,22.022,84.938c4.371,20.474,46.186,58.846,38.613,75.375C139.109,8.734,23.847-50.695-13.24,18.075
		c-49.075,91.041,67.61,181.892,93.349,241.208c19.292,44.44-48.377,126.132,11.612,193.426c6.722,7.54,26.755,15.798,36.823,16.613
		c57.562,4.662,167.341-86.79,167.341-86.79s-120.773-160-96.691-213.397c4.15-9.207,14.008-11.404,14.008-11.404
		s121.039,182.11,199.826,232.651c0.097,0.064,0.229-0.479,0.377-1.498c0.043,0.13,0.088,0.265,0.116,0.312
		C442.828,433.151,427.57,548.594,426.289,586.94z M462.234,173.257l-25.977,7.713l-23.982,33.496l20.247,12.554l19.922-23.752
		l87.819,43.374l-16.604,30.006l-57.07-35.971c-5.149-1.342-10.127,0.54-20.999,3.479c-1.081,0.291-43.539,66.274-43.539,66.274
		c-73.731-43.999-148.773-161.047-161.52-220.83c0,0,67.827,67.483,109.912,60.156c134.68-23.453,143.137-205.44,143.137-205.44
		s-30.287,0.513-30.396,1.63C450.35,74.146,373.677,125.465,349.739,118.07C244.867,85.692,194.257-103.143,223.07-146.014
		c30.067-44.736,52.681,2.624,213.668-184.181c12.581-14.606,69.407,16.864,70.888,30.273
		C543.971,29.103,462.234,173.257,462.234,173.257z"/>
</g>
</svg>
