<?xml version="1.0" encoding="utf-8"?>
<!-- Generator: Adobe Illustrator 15.1.0, SVG Export Plug-In . SVG Version: 6.00 Build 0)  -->
<!DOCTYPE svg PUBLIC "-//W3C//DTD SVG 1.1//EN" "http://www.w3.org/Graphics/SVG/1.1/DTD/svg11.dtd">
<svg version="1.1" id="Layer_1" xmlns="http://www.w3.org/2000/svg" xmlns:xlink="http://www.w3.org/1999/xlink" x="0px" y="0px"
	 width="982.951px" height="527.974px" viewBox="0 0 982.951 527.974" enable-background="new 0 0 982.951 527.974"
	 xml:space="preserve">
<polygon fill="#F9BC6B" points="11,232.489 63.497,251.488 63.497,236.988 90.496,94.496 262.987,153.493 304.985,0 421.979,73.497 
	480.476,10.5 528.474,43.498 558.472,95.996 612.47,113.995 733.964,140.493 711.465,248.988 723.464,259.487 720.464,298.486 
	834.458,341.983 915.454,343.984 982.951,371.982 981.451,450.478 822.459,421.479 844.958,527.974 723.964,481.476 
	526.974,425.979 444.478,418.48 445.978,394.48 433.979,385.481 327.484,404.98 71.497,314.984 0,307.985 "/>
</svg>
