<?xml version="1.0" encoding="utf-8"?>
<!-- Generator: Adobe Illustrator 16.0.0, SVG Export Plug-In . SVG Version: 6.00 Build 0)  -->
<!DOCTYPE svg PUBLIC "-//W3C//DTD SVG 1.1//EN" "http://www.w3.org/Graphics/SVG/1.1/DTD/svg11.dtd">
<svg version="1.1" xmlns="http://www.w3.org/2000/svg" xmlns:xlink="http://www.w3.org/1999/xlink" x="0px" y="0px" width="2000px"
	 height="2000px" viewBox="-760 -760 2000 2000" enable-background="new -760 -760 2000 2000" xml:space="preserve">
<g id="Layer_2">
	
		<rect x="-2201.885" y="-1268.837" fill="#4EB7E5" stroke="#000000" stroke-width="1.9612" stroke-miterlimit="10" width="5011.888" height="2721.778"/>
</g>
<g id="Layer_1">
	<path id="mapa_valpo" fill="#B2B2B2" d="M2205.949,666.155c-29.984-14.453-60.092-21.373-60.092-21.373s35.289-106.46-0.184-185.54
		l-0.574-595.964c0,0-113.416-449.302-227.677-541.6c-114.675-92.638-436.357-82.163-574.066-134.773
		c-166.3-63.529-473.365-258.131-647.002-297.405c-127.647-28.873-392.956-5.508-523.49,3.981
		c-296.878,21.584-898.681,124.404-1160.579,265.869c-140.956,76.135-372.488,305.812-466.149,410.659
		c-27.894,53.676-133.333,261.02-117.28,317.745c9.082,32.102,48.112,55.689,63.668,117.293
		c8.915,35.307-5.113,77.411,2.501,101.666c7.919,25.239,68.541,80.612,68.541,80.612s-77.946,110.354-73.61,152.453
		c7.64,74.19,181.756,236.597,181.756,236.597s82.521,82.886,101.846,116.363c37.081,64.245,59.75,175.587,116.688,272.788
		c20.139,34.384,58.314,106.605,88.626,132.464c43.327,36.971,205.009,99.391,205.009,99.391s-22.547-155.45-18.159-200.189
		c3.519-35.894,23.326-91.236,49.787-122.344c0.666-0.79,87.552,84.357,87.552,84.357l25.398-40.999l-81.583-89.947l300.116-311.844
		c0,0,191.212-100.406,300.17-107.984c91.792-6.387,441.156,23.611,489.466,44.594c61.697,26.791,108.381,92.042,144.783,166.082
		c0.619,1.27,82.798-13.72,82.798-13.72l-30.44-142.106l117.565,43.514l17.16,233.734l262.029,276.957l-79.637,83.705
		l-269.683-73.343l-9.967,23.111l285.84,78.341l90.339-93.149l18.717,18.58c0,0,78.029-54.535,179.944-40.771
		c87.969,11.886,155.695,61.753,188.45,105.282c35.386,47.02,57.569,116.821,77.603,131.159
		c20.872,14.938,47.664-16.601,63.663-13.615c17.398,3.254-31.28,105.375,106.059,103.538
		c120.832-1.631,106.483-78.971,129.614-87.397c16.21-5.913,95.001,50.23,134.963,46.612
		c77.877-7.044,218.562-101.301,242.341-202.636c15.466-65.878-64.712-195.236-20.244-236.296
		c31.022-28.642,46.477,26.279,81.272,30.989c131.753,17.838,143.927-104.007,140.244-118.792
		C2279.49,730.438,2265.234,694.72,2205.949,666.155z"/>
	<path opacity="0.52" fill="#FFFFFF" stroke="#000000" stroke-width="1.5123" stroke-miterlimit="10" d="M1358.094,439.608
		c-257.443,28.753-684.196-105.061-684.196-105.061l-42.594,89.834c0,0,410.108,112.049,592.743,191.489
		C1225.152,616.348,1360.201,439.374,1358.094,439.608z"/>
	<polygon fill="#878787" points="587.424,285.148 603.204,244.723 491.33,241.8 490.966,276.599 	"/>
	<polygon fill="#878787" points="413.922,243.379 412.74,273.217 292.735,270.618 294.09,241.775 	"/>
	<polygon fill="#878787" points="420.104,194.328 416.762,223.494 300.908,221.232 302.922,196.374 	"/>
	<polygon fill="#878787" points="446.765,219.544 448.45,192.698 525.022,192.271 519.024,223.923 	"/>
	<polygon fill="#878787" points="531.159,192.277 617.18,193.35 606.534,227.812 525.99,222.764 	"/>
	<polygon fill="#878787" points="275.032,243.912 271.526,265.951 143.914,254.402 145.083,242.961 	"/>
	<polygon fill="#878787" points="283.365,195.526 277.206,220.047 152.067,217.276 159.054,191.597 	"/>
	<polygon fill="#878787" points="143.315,189.089 134.012,213.119 122.236,216.087 32.774,175.729 46.547,154.025 	"/>
	<polygon fill="#878787" points="31.748,206.557 96.522,239.766 95.186,250.207 26.91,239.037 	"/>
	<polygon fill="#878787" points="-77.788,180.762 4.08,193.77 -0.929,231.383 -81.799,218.219 	"/>
	<path fill="#878787" d="M-99.332,180.244c0,0-72.921-11.423-96.128-6.557c-1.256,0.267,1.338,34.401,2.619,34.316
		c34.354-2.371,92.322,2.075,92.322,2.075L-99.332,180.244z"/>
	<polygon fill="#878787" points="-93.3,154.97 -94.644,128.371 -197.8,107.134 -195.227,145.804 	"/>
	<polygon fill="#878787" points="-71.279,135.234 -74.535,157.227 -24.82,170.451 -32.264,153.294 	"/>
	<polygon fill="#878787" points="17.329,161.162 28.783,142.413 -32.806,71.365 -63.138,68.728 -70.507,107.51 	"/>
	<polygon fill="#878787" points="-198.01,64.251 -194.921,82.904 -91.014,104.009 -88.495,68.334 	"/>
	<polygon fill="#878787" points="-217.976,147.272 -223.781,107.611 -276.632,126.329 -269.828,162.759 	"/>
	<polygon fill="#878787" points="-395.529,185.883 -292.807,144.345 -288.605,169.702 -385.856,211.884 	"/>
	<polygon fill="#878787" points="-282.289,193.953 -274.736,225.657 -437.65,297.104 -453.533,266.016 	"/>
	<polygon fill="#DDDDDD" points="-284.939,103.951 -223.633,80.761 -227.218,59.128 -294.104,67.144 	"/>
	<polygon fill="#878787" points="-297.432,37.803 -230.171,27.428 -227.218,59.128 -294.104,67.144 	"/>
	<path fill="#878787" d="M-199.234,42.992l-7.635-73.845c57.422,8.878,72.432,43.952,123.634,56.931
		c1.037,0.255,0.353,20.631,0.353,20.631L-199.234,42.992z"/>
	<polygon fill="#878787" points="-236.21,-27.525 -302.726,-17.27 -299.153,18.164 -228.658,4.183 	"/>
	<polygon fill="#878787" points="-317.572,41.142 -311.266,74.584 -423.301,110.78 -429.099,61.921 	"/>
	<path fill="#878787" d="M-324.73-15.924c-30.083,3.455-69.607-3.795-117.471-1.227l11.006,61.79l112.646-23.261L-324.73-15.924z"/>
	<path fill="#DDDDDD" d="M-199.234,42.992l1.224,21.259l109.515,4.083l-2.519,35.675l20.507,3.5l7.369-38.782l24.734,1.266
		c-17.375-26.243-44.832-43.916-44.832-43.916l0.353,20.631L-199.234,42.992z"/>
	<polygon fill="#DDDDDD" points="-223.781,107.611 -198.542,102.664 -195.227,145.804 -217.976,147.272 	"/>
	<polygon fill="#DDDDDD" points="-195.46,173.687 -216.635,173.874 -214.93,211.916 -192.841,208.003 	"/>
	<path opacity="0.49" fill="#C4C4C4" d="M6.394,25.789c2.764,99.942,97.247,125.661,146.061,132.151
		c102.668,13.645,264.559-22.374,264.559-22.374l26.479-2.094c0,0-4.499-22.571,8.527-78.054
		c4.488-19.136,70.761-104.965,31.994-181.586c-30.769-60.816-210.87-88.46-210.87-88.46l-26.008-3.405
		c0,0,0.354,47.514-13.819,49.863c-34.467,5.711-29.405-29.69-129.086,53.579c-7.366,6.156-44.674,54.154-56.375,66.825
		C39.256-38.451,6.063,13.95,6.394,25.789z"/>
	<path id="calles_c_conce" fill="#FFFFFF" d="M385.125-191.028l-112.229-25.09l-26.977-0.895c0,0,1.844,37.033-5.386,46.111
		c-8.707,10.93-36.663,2.521-60.922,9.329c-25.766,7.233-47.638,29.355-47.638,29.355L70.297-69.623L26.291-58.456
		c-1.475,6.761-4.237,14.64-6.732,21.164L34.308-30.5l-19.861,7.258c-0.671,8.146,0.701,19.216,3.758,26.837
		C58.117-16.351,94.445-66.922,139.78-108.22c0.628-0.567-7.287,38.86-19.569,57.663C106.455-29.499,64.2,23.104,64.2,23.104
		l16.155,4.989L93.303,9.09l85.138,14.248l-21.2,70.956l18.397,4.622l24.307-75.304l68.481,15.474l-11.347,37.903l23.364,2.255
		l12.339-31.925l46.732,9.11l7.599-18.883l-43.997-11.104l9.975-27.714l42.256,9.86l4.612-18.395l-41.382-9.236l10.218-26.219
		l40.518,8.617l5.732-16.279l-40.396-7.872l6.738-19.512l17.641,4.743l5.735-16.282l-16.526-7.226l30.026-73.188L385.125-191.028z
		 M39.85-36.355l-13.669-6.542l27.816-8.917L39.85-36.355z M185.295,6.872c0,0-78.362-14.36-77.93-14.68
		c15.362-11.358,29.052-28.188,29.052-28.188l57.669,14.967L185.295,6.872z M274.846,22.312l-70.284-12.5l9.907-28.086
		l70.469,13.619L274.846,22.312z M293.222-21.738l-73.948-16.109l10.59-26.284l73.702,14.616L293.222-21.738z M307.931-64.8
		L159.596-95.022l-1.856,15.317l50.186,12.697l-8.23,26.657l-51.948-12.854l6.048-26.869c-0.025-4.536,0.009-23.987,2.461-30.49
		c3.881-10.305,14.717-28.362,34.583-31.792c54.771-9.457,61.773,34.059,67.588,37.855c5.161,3.361,57.667,17.272,57.667,17.272
		L307.931-64.8z M325.187-106.365c0,0-28.462-5.246-35.851-12.837c-9.85-10.115-14.911-73.792-14.911-73.792l78.116,15.798
		L325.187-106.365z"/>
	<path opacity="0.49" fill="#F6F6F6" d="M247.136-218.033c-55.285-67.25,47.67-179.235,88.985-213.206
		c30.359-24.957,119.419-84.17,119.419-84.17s90.544,22.506,116.466,9.061c26.562-13.774,31.424-106.351,61.141-102.872
		c40.645,4.764,24.154,64.472,33.973,94.011c4.584,13.805,20.866,14.938,22.592,29.983c3.081,26.836-44.523,56.699-38.363,83
		c5.854,25.015,69.932,14.12,79.012,46.691c7.557,27.106-43.378,63.583-38.492,86.857c10.892,51.847,72.221,63.631,81.954,96.794
		c8.806,29.964-10.761,69.741-10.772,92.224c-0.014,19.646,27.809,38.316,22.304,69.881c-4.36,25.048-46.025,36.757-46.025,36.757
		s-72.492,4.831-72.608,5.895c-8.026,76.442-47.808,81.504-94.554,86.179c-32.922,3.306-128.673,14.419-128.673,14.419
		s2.021-51.48,6.013-75.3c2.65-15.805,76.978-119.023,33.882-183.471C434.484-198.439,248.281-216.64,247.136-218.033z"/>
	<path id="cerro" fill="#D7D6D8" d="M4.167-181.936c-3.66-8.209-27.797-20.697-46.235-45.2
		c-22.064-29.327-48.201-62.171-48.201-62.171s24.38-19.392,21.581-36.277c-4.429-26.732-33.704-27.629-48.437-45.628
		c-22.182-27.092-13.202-61.17-23.556-68.144c-11.297-7.609-115.44,83.512-121.108,120.217
		c-2.814,18.212,39.102,42.949,47.25,58.012c-0.365,0.094-0.023,0.001-0.016,0.015c46.737,69.286,3.196,119.162-0.419,123.534
		c-7.341,8.879-26.87,25.145-26.87,25.145l23.438,53.599c25.9-4.522,59.348,9.553,65.239,12.09
		c17.165,5.681,58.793,60.747,110.853,49.173C-1.657-6.605,3.369-61.857,6.309-81.122C11.248-113.507,17.936-153.048,4.167-181.936z
		"/>
	<path id="cementerio_1" fill="#AEB0AE" d="M-169.994-116.674l119.905-71.988l43.074,19.436c0,0-0.535,72.449-3.242,97.621
		c-1.228,11.43-7.992,38.115-24.406,43.902c-17.887,6.301-50.356-1.854-73.573-18.471
		C-131.423-62.77-169.994-116.674-169.994-116.674z"/>
	<path id="cementerio_2" fill="#AEB0AE" d="M-72.458-195.687c0,0-36.758,37.545-49.381,30.413
		c-26.215-14.818-3.298-61.537-10.61-87.153c-8.544-29.953-64.317-78.252-37.196-99.607c14.446-11.375,61.841,3.166,66.875,5.78
		c1.238,0.645,2.87,2.502,2.274,5.101c-3.045,13.338-12.17,55.525-9.557,71.222C-106.637-249.412-72.458-195.687-72.458-195.687z"/>
	<path fill="#FFFFFF" d="M61.932-514.827l-32.477-10.969l29.563-62.127l10.39-29.828l10.227-40.018c0,0-15.113-11.235-16.481-6.975
		C27.411-553.563-0.12-536.205-28.252-497.842c-18.336,25.012-67.468,41.854-76.967,65.896c-4.922,12.463-2.25,35.159-0.679,45.348
		c-5.801-9.294-13.718-24.408-14.265-38.349c-1.16-29.533,18.625-43.376,18.625-43.376s-6.197-14.269-10.43-13.604
		c-31.124,4.903-174.542,99.949-181.895,163.505c-3.72,32.172,63,70.295,72.331,105.025c5.811,21.629-15.719,60.855-15.719,60.855
		l-11.6-2.165l-26.884,35.114l25.544,67.812l40.917,21.836c23.378-6.939,109.083,66.237,135.763,73.056
		c34.013,8.696,50.834,53.916,101.43,97.137c0.853,0.741,23.861-18.545,22.888-19.121C16.268,100.792,4.144,37.757,4.151,30.755
		C4.158,23.286,15.372,8.24,19.586,2.841c-3.805-8.078-5.426-17.215-3.09-25.798l-0.273,0.114l-0.003-0.01l3.499-12.518
		c-0.414,0.042,3.819-9.421,7.949-23.23c0.002-0.01,0.218-0.051,0.492-0.091l7.204-55.219l2.514-24.943l4.182-39.528l39.351-73.964
		l-12.093-5.154c0,0-37.586-16.17-36.613-17.433c45.385-59.132,22.47-188.188,28.635-221.911
		c1.786-9.779,21.322-22.441,31.023-31.71c2.472-2.364-3.721-13.179-3.721-13.179L61.932-514.827z M-102.771-346.254
		c1.238,0.645,2.87,2.502,2.274,5.101c-3.045,13.338-12.17,55.525-9.557,71.222c3.417,20.52,37.595,74.245,37.595,74.245
		s-36.758,37.545-49.381,30.413c-26.215-14.818-3.298-61.537-10.61-87.153c-8.544-29.953-64.317-78.252-37.196-99.607
		C-155.2-363.409-107.805-348.869-102.771-346.254z M-218.774-59.536l-19.924-52.397c0,0,4.367-3.642,10.385-10.175l32.072,63.74
		C-203.156-59.227-210.628-59.647-218.774-59.536z M7.421-97.529C7.03-85.799,4.906-70.104,0.951-54.711
		c-4.858,18.909-12.476,37.36-23.035,47.406C-31.762,1.906-55.077,6.13-68.255,3.921c-35.808-6.011-53.41-32.822-86.221-49.622
		c-6.522-11.927-60.582-92.218-60.868-91.817c-1.185,1.656-2.59,3.305-4.042,4.85c14.454-18.664,30.755-48.339,24.667-82.358
		c-10.435-58.319-63.726-70.215-66.411-100.132c-3.839-42.783,102.893-125.458,117.136-125.692
		c11.975-0.196,7.842,28.521,9.908,38.214c1.967,9.211,20.779,26.475,17.373,33.911c-5.066,11.062-56.923-15.676-73.608,15.264
		c-22.079,40.959,30.417,81.833,41.998,108.52c8.68,19.994-21.765,56.747,5.225,87.021c3.024,3.393,12.037,7.107,16.566,7.475
		c25.897,2.099,75.287-39.047,75.287-39.047s-54.336-71.983-43.502-96.007c1.868-4.142,6.303-5.131,6.303-5.131
		S-33.991-208.7,1.455-185.961c0.043,0.029,0.104-0.215,0.17-0.674c0.019,0.059,0.039,0.12,0.051,0.141
		C14.862-166.719,7.998-114.781,7.421-97.529z M23.592-283.646l-11.686,3.47l-10.791,15.07l9.11,5.648l8.962-10.686l39.509,19.514
		l-7.471,13.5l-25.675-16.183c-2.317-0.604-4.556,0.243-9.447,1.565c-0.486,0.131-19.589,29.817-19.589,29.817
		c-33.171-19.795-66.933-72.455-72.667-99.352c0,0,30.516,30.361,49.449,27.064c60.593-10.551,64.397-92.427,64.397-92.427
		s-13.625,0.231-13.675,0.733c-5.774,57.677-40.269,80.765-51.038,77.438C-74.2-323.041-96.97-407.998-84.006-427.285
		c13.527-20.127,23.701,1.18,96.129-82.863c5.66-6.571,31.227,7.587,31.892,13.62C60.367-348.5,23.592-283.646,23.592-283.646z"/>
</g>
</svg>
